<svg id="svg" version="1.1" xmlns="http://www.w3.org/2000/svg" xmlns:xlink="http://www.w3.org/1999/xlink" width="400" height="114.66666666666667" viewBox="0, 0, 400,114.66666666666667"><g id="svgg"><path id="path0" d="M345.440 5.872 C 342.987 8.827,344.211 12.412,348.350 14.396 C 351.106 15.717,352.000 17.108,352.000 20.073 C 352.000 24.556,350.079 25.217,348.053 21.432 C 344.094 14.035,330.551 8.566,328.000 13.333 C 325.716 17.601,328.492 21.333,333.950 21.333 C 339.105 21.333,344.737 26.940,343.236 30.576 C 340.873 36.295,341.057 43.979,343.662 48.393 C 347.451 54.815,338.184 59.845,333.333 54.000 C 329.518 49.403,323.039 53.321,324.543 59.316 C 325.165 61.793,324.856 62.667,323.359 62.667 C 322.245 62.667,321.333 62.090,321.333 61.385 C 321.333 60.681,320.020 58.881,318.415 57.385 C 313.030 52.368,282.667 54.495,282.667 59.889 C 282.667 63.290,275.785 65.034,270.523 62.967 C 266.584 61.420,264.252 61.283,260.036 62.353 C 255.361 63.540,254.443 63.407,253.362 61.387 C 248.930 53.105,222.662 50.637,216.402 57.914 C 211.537 63.570,204.030 63.795,200.921 58.378 C 197.432 52.299,185.612 53.271,177.383 60.315 C 171.275 65.543,166.347 65.355,164.904 59.837 C 164.352 57.723,162.947 57.333,155.884 57.333 L 147.518 57.333 154.759 51.940 C 162.363 46.277,164.067 44.105,161.111 43.842 C 158.433 43.604,158.495 43.592,151.102 45.767 L 144.203 47.796 148.738 40.268 C 154.582 30.566,152.903 28.513,144.652 35.274 C 137.309 41.291,136.628 40.924,138.546 31.981 C 140.973 20.665,138.451 19.492,132.910 29.358 C 128.483 37.240,127.323 37.022,126.137 28.085 C 124.584 16.379,120.933 17.657,119.333 30.466 L 118.409 37.857 113.764 30.262 C 111.209 26.084,108.483 22.667,107.706 22.667 C 106.176 22.667,106.979 34.627,108.825 39.327 C 109.568 41.220,107.805 40.343,102.709 36.286 C 93.644 29.068,91.727 30.527,97.300 40.403 L 101.474 47.798 93.406 45.355 C 87.881 43.683,85.061 43.362,84.457 44.339 C 83.619 45.695,84.647 46.751,94.000 54.143 L 98.000 57.304 90.667 57.339 C 81.344 57.384,78.186 59.142,82.000 62.163 C 84.588 64.213,84.568 64.244,81.333 63.195 C 79.500 62.600,69.037 62.121,58.081 62.129 L 38.163 62.145 34.735 58.309 C 27.539 50.254,8.763 52.962,2.702 62.929 C -0.229 67.749,-0.887 84.595,1.640 90.141 C 4.716 96.893,16.873 100.203,26.449 96.896 C 31.207 95.253,32.978 95.193,36.449 96.557 C 39.319 97.685,46.629 98.072,59.333 97.769 C 80.970 97.254,78.378 97.248,89.049 97.831 C 95.151 98.165,97.899 98.931,99.155 100.648 C 100.758 102.841,101.159 102.709,104.835 98.775 C 109.933 93.320,113.041 94.277,113.596 101.472 C 114.102 108.031,116.091 108.642,118.574 103.000 C 121.149 97.149,124.894 97.290,127.419 103.333 C 130.003 109.518,132.000 109.248,132.000 102.714 C 132.000 95.037,135.632 93.411,140.779 98.784 C 144.241 102.397,144.772 102.572,146.231 100.576 C 147.709 98.555,163.233 96.784,174.000 97.408 C 176.008 97.524,253.343 97.511,277.333 97.390 C 279.167 97.381,288.167 97.439,297.333 97.521 C 306.500 97.602,315.500 97.588,317.333 97.491 C 327.017 96.976,335.965 98.222,338.396 100.422 C 342.702 104.319,349.770 104.736,356.047 101.465 C 360.633 99.075,362.342 98.820,366.358 99.929 C 372.201 101.542,377.000 100.558,381.000 96.926 C 388.381 90.224,381.412 78.132,372.145 81.563 C 369.028 82.717,369.006 82.676,371.175 79.705 C 372.395 78.034,374.038 75.017,374.827 73.000 C 376.794 67.971,379.735 68.333,380.249 73.667 C 380.607 77.381,381.238 78.062,384.667 78.436 C 386.867 78.676,389.237 79.426,389.933 80.103 C 395.382 85.396,403.228 68.939,398.291 62.572 C 397.398 61.420,392.951 58.596,388.410 56.298 C 374.823 49.420,374.572 49.195,375.425 44.645 C 376.023 41.459,375.325 39.518,372.145 35.516 C 369.923 32.720,367.742 29.287,367.297 27.886 C 366.853 26.485,365.029 24.973,363.244 24.525 C 361.289 24.034,360.000 22.743,360.000 21.276 C 360.000 11.695,349.674 0.770,345.440 5.872 M360.934 29.904 C 364.500 30.021,368.471 33.333,365.044 33.333 C 363.859 33.333,362.577 34.083,362.195 35.000 C 361.694 36.203,360.956 35.995,359.545 34.254 C 358.413 32.856,357.246 32.397,356.773 33.161 C 356.324 33.888,356.566 34.859,357.312 35.320 C 359.286 36.540,358.973 39.070,356.944 38.291 C 355.997 37.927,354.179 38.392,352.905 39.324 C 350.748 40.901,350.743 41.077,352.835 41.880 C 354.175 42.394,356.208 41.721,357.874 40.213 C 361.844 36.617,367.315 35.568,369.344 38.013 C 370.370 39.249,370.463 40.000,369.589 40.000 C 368.817 40.000,367.994 41.350,367.759 43.000 C 367.278 46.389,360.378 48.103,358.627 45.269 C 358.079 44.383,356.982 44.060,356.189 44.550 C 355.298 45.100,356.389 46.995,359.040 49.499 C 362.778 53.031,362.953 53.474,360.397 52.920 C 358.782 52.570,357.271 52.853,357.039 53.550 C 356.807 54.246,354.528 53.413,351.975 51.697 C 346.722 48.166,344.289 41.417,346.023 35.183 C 346.804 32.375,347.242 31.964,347.644 33.667 C 348.319 36.522,351.099 36.693,353.320 34.016 C 354.654 32.409,354.559 31.875,352.824 31.209 C 349.608 29.975,351.774 27.742,355.112 28.850 C 356.700 29.377,359.320 29.852,360.934 29.904 M369.050 48.667 C 366.332 54.262,364.000 56.417,364.000 53.333 C 364.000 52.600,364.561 52.000,365.247 52.000 C 365.933 52.000,367.253 49.900,368.182 47.333 C 369.110 44.767,370.341 42.667,370.917 42.667 C 371.494 42.667,370.654 45.367,369.050 48.667 M130.614 54.135 C 137.372 56.839,141.778 63.625,141.778 71.332 C 141.778 91.605,110.588 95.513,105.307 75.903 C 101.104 60.294,115.360 48.031,130.614 54.135 M331.149 58.000 C 331.698 59.431,334.108 60.044,339.625 60.155 C 343.865 60.240,346.312 60.578,345.063 60.907 C 343.814 61.236,342.437 62.624,342.002 63.992 C 340.702 68.089,328.000 61.817,328.000 57.078 C 328.000 55.218,330.345 55.905,331.149 58.000 M30.084 63.275 C 33.424 68.372,29.194 71.985,25.333 67.333 C 23.502 65.127,18.182 64.558,18.889 66.644 C 19.133 67.365,22.033 69.315,25.333 70.978 C 34.824 75.758,34.254 85.085,24.288 88.071 C 17.275 90.173,10.510 88.233,8.198 83.459 C 5.430 77.745,8.317 75.847,12.655 80.528 C 14.520 82.540,16.967 83.995,18.093 83.760 C 21.522 83.045,20.608 80.782,15.983 78.538 C 3.148 72.308,6.391 60.000,20.868 60.000 C 26.905 60.000,28.252 60.479,30.084 63.275 M118.933 61.600 C 116.626 63.907,117.011 69.160,119.964 75.667 C 125.388 87.615,132.417 79.294,127.282 67.004 C 124.500 60.346,121.882 58.651,118.933 61.600 M194.667 71.111 C 194.667 83.729,195.319 85.225,198.860 80.724 C 200.238 78.972,203.159 77.144,205.350 76.663 C 209.427 75.768,210.438 74.173,207.916 72.615 C 207.136 72.133,205.322 72.803,203.884 74.105 C 201.799 75.991,200.939 76.134,199.635 74.807 C 197.345 72.478,203.002 68.000,208.235 68.000 C 214.902 68.000,217.333 70.130,217.333 75.968 C 217.333 78.832,217.933 81.547,218.667 82.000 C 222.785 84.545,216.675 90.590,212.401 88.198 C 210.985 87.406,209.064 87.454,207.140 88.331 C 204.835 89.381,203.341 89.208,200.901 87.609 C 199.136 86.453,197.162 85.991,196.513 86.582 C 194.515 88.400,188.209 89.417,187.367 88.055 C 186.865 87.242,185.381 87.310,183.340 88.239 C 180.765 89.413,179.410 89.253,176.662 87.453 C 167.395 81.381,171.068 68.000,182.002 68.000 C 184.910 68.000,185.367 67.541,184.664 65.325 C 184.030 63.328,184.599 62.335,186.907 61.409 C 194.189 58.489,194.667 59.087,194.667 71.111 M245.333 62.667 C 248.499 65.832,248.665 67.791,246.082 71.478 C 244.372 73.920,244.444 74.454,246.749 76.428 C 248.170 77.645,249.333 79.846,249.333 81.320 C 249.333 82.794,249.933 84.000,250.667 84.000 C 253.448 84.000,251.855 87.986,248.763 88.762 C 242.615 90.305,237.333 85.919,237.333 79.271 C 237.333 78.205,236.363 77.333,235.178 77.333 C 233.019 77.333,233.042 80.303,235.241 85.502 C 236.375 88.182,230.883 89.886,225.162 88.629 C 221.396 87.802,220.052 84.949,222.667 83.333 C 224.488 82.208,224.361 66.228,222.516 64.383 C 219.563 61.429,222.899 60.000,232.745 60.000 C 240.889 60.000,243.145 60.478,245.333 62.667 M300.000 72.241 C 300.682 84.050,301.853 87.438,304.052 83.961 C 305.759 81.262,305.646 75.512,303.850 73.716 C 301.741 71.608,303.368 69.684,308.147 68.634 C 313.584 67.440,314.224 68.399,315.013 78.929 C 315.757 88.859,313.169 91.233,304.988 88.122 C 302.940 87.343,299.908 87.262,297.602 87.923 C 295.451 88.540,292.892 88.552,291.917 87.949 C 290.942 87.346,289.096 87.414,287.815 88.099 C 282.985 90.684,276.000 84.389,276.000 77.450 C 276.000 72.826,281.156 68.000,286.097 68.000 C 288.610 68.000,290.667 67.400,290.667 66.667 C 290.667 65.933,290.017 65.333,289.222 65.333 C 286.579 65.333,288.814 62.088,292.099 61.155 C 298.810 59.250,299.289 59.922,300.000 72.241 M312.903 62.135 C 313.854 64.612,311.266 66.617,307.079 66.646 C 303.058 66.674,301.743 63.973,304.718 61.798 C 308.038 59.370,311.903 59.529,312.903 62.135 M374.136 63.096 C 374.561 64.434,373.955 66.576,372.787 67.867 C 371.621 69.156,370.667 70.878,370.667 71.695 C 370.667 72.921,366.149 81.698,364.353 83.961 C 364.079 84.307,363.438 83.974,362.928 83.221 C 362.343 82.359,361.155 82.725,359.715 84.211 C 358.410 85.559,357.981 86.910,358.715 87.363 C 359.422 87.800,360.000 87.522,360.000 86.745 C 360.000 84.922,363.633 84.899,364.240 86.719 C 364.542 87.626,366.567 87.446,370.108 86.197 C 376.514 83.937,380.000 85.274,380.000 89.991 C 380.000 96.517,371.709 99.167,364.667 94.890 C 360.670 92.463,360.664 92.464,356.898 96.231 C 351.350 101.779,340.000 100.876,340.000 94.886 C 340.000 91.071,342.819 89.333,349.012 89.333 C 352.547 89.333,354.501 88.811,354.000 88.000 C 353.547 87.267,353.665 86.667,354.263 86.667 C 355.545 86.667,358.667 77.228,358.667 73.354 C 358.667 71.876,359.320 70.667,360.120 70.667 C 362.084 70.667,366.567 65.151,366.622 62.667 C 366.688 59.711,373.179 60.081,374.136 63.096 M393.453 63.478 C 394.965 65.300,394.850 65.901,392.688 67.483 C 390.713 68.927,390.501 69.701,391.738 70.938 C 392.616 71.816,393.293 73.463,393.243 74.600 C 393.184 75.964,392.661 75.646,391.706 73.667 C 390.025 70.182,388.602 69.842,387.518 72.667 C 387.096 73.767,386.067 74.667,385.233 74.667 C 384.398 74.667,384.075 73.729,384.515 72.582 C 384.955 71.436,384.419 68.766,383.324 66.648 C 382.229 64.531,381.333 62.469,381.333 62.066 C 381.333 60.275,391.808 61.495,393.453 63.478 M354.454 65.792 C 352.504 66.659,349.640 68.516,348.089 69.919 C 346.025 71.787,344.874 72.074,343.791 70.991 C 341.537 68.737,343.404 65.427,346.476 66.231 C 347.928 66.610,350.215 66.282,351.558 65.501 C 352.901 64.720,354.900 64.112,356.000 64.149 C 357.100 64.186,356.404 64.926,354.454 65.792 M233.333 68.778 C 233.333 72.955,236.465 72.498,237.093 68.229 C 237.376 66.306,236.816 65.333,235.426 65.333 C 234.065 65.333,233.333 66.537,233.333 68.778 M45.070 75.667 C 45.360 80.702,46.014 82.667,47.403 82.667 C 49.837 82.667,50.050 74.583,47.678 72.211 C 45.549 70.083,48.416 68.050,53.588 68.020 C 58.152 67.994,58.302 68.293,58.864 78.570 C 59.356 87.552,54.937 92.097,49.831 87.860 C 48.681 86.905,47.297 86.949,45.329 88.002 C 40.456 90.610,36.000 86.582,36.000 79.569 C 36.000 76.433,35.255 73.122,34.344 72.211 C 32.048 69.914,35.384 67.861,40.667 68.319 C 44.500 68.652,44.683 68.958,45.070 75.667 M78.426 71.667 C 78.894 74.964,76.261 75.728,73.600 73.067 C 72.720 72.187,72.000 71.946,72.000 72.532 C 72.000 75.822,80.410 81.376,82.517 79.477 C 83.699 78.412,86.317 77.129,88.333 76.626 C 90.350 76.123,92.000 74.876,92.000 73.855 C 92.000 71.342,89.410 71.518,86.407 74.235 C 84.436 76.018,83.606 76.134,82.302 74.807 C 79.520 71.978,86.011 67.785,92.426 68.268 C 98.294 68.709,98.945 69.524,101.251 79.297 C 102.943 86.468,100.678 90.483,96.038 88.537 C 93.578 87.505,92.221 87.533,88.457 88.693 C 86.447 89.313,84.707 88.707,82.682 86.682 C 80.068 84.068,79.632 83.994,78.216 85.930 C 75.369 89.823,63.260 89.304,61.968 85.233 C 60.785 81.504,62.204 80.403,65.524 82.476 C 69.581 85.010,70.140 83.257,66.116 80.620 C 62.349 78.152,61.426 72.440,64.326 69.540 C 67.327 66.539,77.925 68.138,78.426 71.667 M155.005 69.667 C 155.447 70.978,156.023 70.956,157.710 69.564 C 163.144 65.080,166.987 68.550,168.976 79.736 C 170.389 87.682,168.283 90.363,161.888 88.758 C 159.015 88.037,158.724 87.317,159.012 81.644 C 159.260 76.781,158.875 75.333,157.333 75.333 C 155.812 75.333,155.383 76.822,155.540 81.554 C 155.757 88.104,152.753 90.597,146.887 88.737 C 143.410 87.634,143.914 70.575,147.464 69.182 C 151.389 67.642,154.389 67.835,155.005 69.667 M271.143 71.000 C 276.703 79.914,273.805 91.820,266.966 88.160 C 265.440 87.344,263.728 87.380,262.153 88.261 C 258.499 90.306,253.333 87.532,253.333 83.525 C 253.333 79.795,255.252 77.906,260.341 76.629 C 262.353 76.124,264.000 74.876,264.000 73.855 C 264.000 71.422,261.651 71.492,259.143 74.000 C 256.403 76.740,254.667 76.507,254.667 73.400 C 254.667 67.592,267.822 65.676,271.143 71.000 M337.452 70.495 C 340.970 73.344,341.693 81.020,338.775 84.536 C 333.369 91.050,319.729 89.362,317.868 81.950 C 315.274 71.615,328.954 63.614,337.452 70.495 M287.278 73.664 C 286.152 76.597,287.055 82.689,288.667 83.041 C 290.494 83.441,291.196 74.662,289.474 72.941 C 288.514 71.981,287.838 72.203,287.278 73.664 M182.222 74.222 C 180.846 75.599,181.174 82.411,182.661 83.330 C 184.407 84.409,187.245 78.096,186.217 75.418 C 185.376 73.225,183.716 72.728,182.222 74.222 M326.667 76.412 C 326.667 80.451,329.894 84.996,331.229 82.836 C 332.705 80.448,330.707 73.333,328.561 73.333 C 327.471 73.333,326.667 74.641,326.667 76.412 M352.995 83.803 C 350.716 88.573,344.570 89.695,345.796 85.117 C 346.255 83.403,346.638 81.042,346.648 79.870 C 346.658 78.699,348.017 77.132,349.667 76.387 C 353.610 74.608,355.440 78.686,352.995 83.803 M89.333 82.000 C 89.333 83.100,89.933 84.000,90.667 84.000 C 91.400 84.000,92.000 83.100,92.000 82.000 C 92.000 80.900,91.400 80.000,90.667 80.000 C 89.933 80.000,89.333 80.900,89.333 82.000 M206.667 82.000 C 206.667 83.100,207.267 84.000,208.000 84.000 C 208.733 84.000,209.333 83.100,209.333 82.000 C 209.333 80.900,208.733 80.000,208.000 80.000 C 207.267 80.000,206.667 80.900,206.667 82.000 M261.333 82.000 C 261.333 83.100,261.933 84.000,262.667 84.000 C 263.400 84.000,264.000 83.100,264.000 82.000 C 264.000 80.900,263.400 80.000,262.667 80.000 C 261.933 80.000,261.333 80.900,261.333 82.000 " stroke="none" fill="#000000" fill-rule="evenodd"></path></g></svg>